<svg width="35" height="40" viewBox="0 0 35 40" fill="none" xmlns="http://www.w3.org/2000/svg">
<path d="M33.4167 18.0869C33.0851 18.0869 32.7671 18.2185 32.5328 18.4523C32.2983 18.6864 32.1666 19.0037 32.1666 19.3343V20.2491C32.1599 21.4037 31.7199 22.5142 30.9331 23.3608C30.1464 24.2074 29.0701 24.7292 27.9166 24.8229C27.9218 23.2332 27.6393 21.6557 27.0833 20.1658C28.7806 19.9436 30.3388 19.1118 31.4662 17.826C32.5933 16.5403 33.2127 14.8888 33.2083 13.1806V12.2658C33.1978 11.9384 33.063 11.6272 32.8307 11.3954C32.5985 11.1637 32.2867 11.0288 31.9582 11.0184C31.6269 11.0184 31.3089 11.1498 31.0744 11.3838C30.8401 11.6176 30.7084 11.9349 30.7084 12.2658V13.1806C30.7084 14.3935 30.2254 15.5568 29.366 16.4148C28.5062 17.2724 27.3405 17.7544 26.125 17.7544H25.9166C25.4597 17.0102 24.9293 16.3139 24.3332 15.6755C24.7904 14.5101 25.0168 13.2676 24.9999 12.0164C24.9999 9.06415 23.7918 6.40307 21.875 4.78155L24.5416 2.12048C24.7811 1.89309 24.9168 1.57724 24.9168 1.24746C24.9168 0.917403 24.7811 0.601845 24.5416 0.374147C24.3137 0.135155 23.9975 0 23.6668 0C23.336 0 23.0198 0.135155 22.7916 0.374147L19.6666 3.45109C18.1606 2.89742 16.5062 2.89742 15.0001 3.45109L11.8751 0.374147C11.647 0.135155 11.3308 0 11 0C10.6692 0 10.353 0.135155 10.1251 0.374147C9.88565 0.601823 9.74992 0.91738 9.74992 1.24746C9.74992 1.57723 9.88565 1.89308 10.1251 2.12048L12.7918 4.78155C10.875 6.40314 9.66681 9.06422 9.66681 12.0164C9.64995 13.2677 9.87636 14.5101 10.3335 15.6755C9.73744 16.3138 9.20699 17.0102 8.75015 17.7544H8.54176C7.32629 17.7544 6.16053 17.2724 5.30079 16.4148C4.44135 15.5568 3.95831 14.3935 3.95831 13.1806V12.2658C3.95831 11.9349 3.82666 11.6176 3.59239 11.3838C3.35785 11.1498 3.03988 11.0184 2.70855 11.0184C2.38012 11.0288 2.06826 11.1637 1.83601 11.3954C1.60379 11.6272 1.46893 11.9384 1.45847 12.2658V13.1806C1.45411 14.8889 2.07346 16.5403 3.20057 17.826C4.32794 19.1117 5.88611 19.9436 7.58342 20.1658C7.02742 21.6556 6.74488 23.2331 6.75016 24.8229C5.5966 24.7292 4.52035 24.2074 3.7336 23.3608C2.94685 22.5142 2.50682 21.4037 2.50013 20.2491V19.3343C2.50013 19.0037 2.36847 18.6864 2.13392 18.4523C1.89966 18.2186 1.5817 18.0869 1.25007 18.0869C0.921935 18.0973 0.610077 18.2322 0.377832 18.4639C0.145609 18.6957 0.0104616 19.0069 3.49996e-07 19.3343V20.2491C-0.000580895 22.0954 0.722822 23.8684 2.01531 25.1895C3.30808 26.5103 5.06707 27.2743 6.91668 27.3175C7.08612 28.5409 7.43722 29.7321 7.95834 30.8519C6.27584 31.0998 4.73776 31.9407 3.62199 33.2217C2.50623 34.5028 1.88659 36.1401 1.87498 37.837V38.7518C1.87498 39.0827 2.00693 39.4 2.24119 39.6338C2.47574 39.8678 2.7937 39.9992 3.12504 39.9992C3.46015 40.0111 3.7848 39.8835 4.02198 39.6468C4.25885 39.4105 4.38702 39.0862 4.37511 38.7518V37.837C4.38586 36.6276 4.8724 35.4704 5.72949 34.615C6.58685 33.7597 7.74621 33.2742 8.95848 33.2635H9.33341C11.2917 35.9245 14.1668 37.5876 17.3333 37.5876C20.4999 37.5876 23.3749 35.9245 25.3333 33.2635H25.7082C26.9205 33.2742 28.0798 33.7597 28.9372 34.615C29.7943 35.4704 30.2808 36.6275 30.2916 37.837V38.7518C30.2796 39.0862 30.4078 39.4104 30.6447 39.6468C30.8819 39.8835 31.2065 40.0111 31.5416 39.9992C31.873 39.9992 32.1909 39.8679 32.4255 39.6338C32.6597 39.4 32.7917 39.0827 32.7917 38.7518V37.837C32.7801 36.1401 32.1604 34.5028 31.0447 33.2217C29.9289 31.9407 28.3908 31.0999 26.7083 30.8519C27.2295 29.7321 27.5806 28.5409 27.75 27.3175C29.5996 27.2743 31.3586 26.5103 32.6514 25.1895C33.9438 23.8684 34.6673 22.0954 34.6667 20.2491V19.3343C34.6562 19.0069 34.5211 18.6957 34.2888 18.4639C34.0566 18.2322 33.7448 18.0973 33.4166 18.0869H33.4167ZM17.3335 15.0517C19.9167 15.0517 22.1668 16.5485 23.6668 18.8354C22.125 21.2053 19.8335 22.6192 17.3335 22.6192C14.8334 22.6192 12.542 21.2056 11.0001 18.8354C12.5001 16.5485 14.7918 15.0517 17.3335 15.0517ZM17.3335 5.53C20.2085 5.53 22.5002 8.44048 22.5002 12.0163C22.4993 12.6892 22.4153 13.3595 22.2499 14.012C20.7877 13.0602 19.0794 12.5534 17.3335 12.5534C15.5876 12.5534 13.8792 13.0601 12.417 14.012C12.2516 13.3594 12.1676 12.6892 12.1667 12.0163C12.1667 8.44048 14.4585 5.53 17.3334 5.53H17.3335ZM17.3335 35.0929C12.875 35.0929 9.25022 30.6023 9.25022 25.0723C9.23424 23.8315 9.41705 22.5962 9.79198 21.4132C11.7919 23.7416 14.4585 25.1138 17.3336 25.1138C20.2742 25.0627 23.0389 23.7059 24.8752 21.4132C25.2501 22.5963 25.4329 23.8315 25.4169 25.0723C25.4169 30.6023 21.792 35.0929 17.3337 35.0929H17.3335Z" fill="white"/>
</svg>
