<svg width="49" height="40" viewBox="0 0 49 40" fill="none" xmlns="http://www.w3.org/2000/svg">
<path d="M48.6662 20.2137C48.6683 19.7488 48.4036 19.3231 47.9836 19.1159L42.4486 16.384L47.9467 13.7559V13.7563C48.3676 13.5513 48.6344 13.1269 48.6344 12.6619C48.6344 12.1966 48.3676 11.7722 47.9467 11.5671L24.9204 0.128872C24.5738 -0.0429574 24.1658 -0.0429574 23.8196 0.128872L0.761506 11.5617C0.34065 11.7667 0.0738033 12.1912 0.0738033 12.6561C0.0738033 13.121 0.34065 13.5454 0.761506 13.7509L6.25965 16.379L0.724604 19.1109V19.1105C0.303748 19.3155 0.0369016 19.74 0.0369016 20.2049C0.0369016 20.6698 0.303748 21.0942 0.724604 21.2997L6.22275 23.9278L0.687701 26.6597V26.6593C0.266845 26.8643 0 27.2888 0 27.7537C0 28.2186 0.266845 28.6431 0.687701 28.8485L23.8381 39.8785C24.1761 40.0405 24.57 40.0405 24.908 39.8785L47.9717 28.854C48.3925 28.649 48.6594 28.2245 48.6594 27.7596C48.6594 27.2943 48.3925 26.8698 47.9717 26.6648L42.4366 23.9329L47.9348 21.3047V21.3052C48.3719 21.1133 48.6576 20.6876 48.6667 20.2138L48.6662 20.2137ZM24.3725 2.57997L44.6685 12.6287L24.3725 22.3237L4.0765 12.6287L24.3725 2.57997ZM39.6681 25.2692L44.6438 27.708L24.3719 37.4276L4.07595 27.7387L9.05165 25.2999L23.8124 32.3548C24.1504 32.5164 24.5447 32.5164 24.8828 32.3548L39.6681 25.2692ZM39.1451 22.8304L24.3723 29.8789L9.61158 22.8121L4.07609 20.184L9.05179 17.7452L23.8125 24.8001V24.7997C24.1506 24.9617 24.5448 24.9617 24.8829 24.7997L39.6436 17.7448L44.6193 20.1836L39.1451 22.8304Z" fill="white"/>
</svg>
