<svg width="201" height="108" viewBox="0 0 201 108" fill="none" xmlns="http://www.w3.org/2000/svg">
<path d="M3.69512 67.0227C5.18389 67.0227 6.47268 68.0437 6.87264 69.4959L12.2722 89.5534C12.4055 90.1206 12.5611 90.8467 12.7833 91.7316C13.0055 92.6165 13.2055 93.5468 13.3832 94.5224C13.5832 95.4981 13.761 96.4737 13.9165 97.4494C14.0943 98.425 14.2276 99.3099 14.3609 100.081H14.4942C14.6276 99.3099 14.7609 98.425 14.9387 97.4494C15.1164 96.4737 15.2942 95.4981 15.5164 94.5224C15.7386 93.5468 15.9386 92.6165 16.1608 91.7543C16.383 90.8921 16.5607 90.1433 16.7385 89.5307L22.3603 69.4505C22.7602 67.9983 24.049 67.0227 25.5156 67.0227H27.071C28.5375 67.0227 29.8263 68.021 30.2263 69.4505L35.9147 89.4173C36.0925 89.9391 36.2703 90.6652 36.4925 91.5728C36.7147 92.4804 36.9146 93.4333 37.1368 94.4317C37.3591 95.43 37.559 96.4283 37.7368 97.4494C37.9368 98.4704 38.0923 99.3553 38.2257 100.081H38.359C38.4923 99.3099 38.6478 98.425 38.8478 97.4721C39.0478 96.5191 39.2256 95.5435 39.4255 94.5678C39.6255 93.5922 39.8255 92.6392 40.0255 91.7316C40.2477 90.824 40.4255 90.0299 40.6032 89.3946L45.6917 69.5185C46.0695 68.0437 47.3805 67 48.8692 67C51.0468 67 52.6245 69.1328 52.0467 71.2656L42.6031 105.55C42.2031 107.002 40.9143 108 39.4255 108H37.2924C35.8036 108 34.5148 107.002 34.1149 105.527L28.8486 86.0592C28.382 84.2441 27.9376 82.497 27.5376 80.8406C27.1377 79.1843 26.6933 77.3918 26.2266 75.4405H26.0933C25.6267 77.3918 25.2045 79.1843 24.8267 80.7725C24.449 82.3835 24.0268 84.0852 23.5602 85.9231L18.4717 105.504C18.094 106.979 16.7829 108 15.2942 108H13.2943C11.8278 108 10.539 107.002 10.139 105.572L0.473164 71.311C-0.126787 69.1555 1.45086 67.0227 3.62846 67.0227H3.69512Z" fill="#1E9EC3"/>
<path d="M58.1464 83.3339V104.666C58.1464 106.513 59.7019 108 61.6345 108C63.567 108 65.1225 106.513 65.1225 104.666V83.3339C65.1225 81.4867 63.567 80 61.6345 80C59.7019 80 58.1464 81.5092 58.1464 83.3339Z" fill="#1E9EC3"/>
<path d="M87.5647 82.4944H81.7231V98.9438C81.7231 100.449 82.063 101.461 82.7215 101.978C83.4013 102.494 84.2934 102.742 85.4405 102.742C86.2477 102.742 87.1186 102.652 88.0321 102.449C88.0958 102.427 88.1383 102.427 88.202 102.405C89.4553 102.135 90.6873 102.966 90.9422 104.292L90.9847 104.472C91.2396 105.775 90.4749 107.034 89.2641 107.348C88.9455 107.438 88.6268 107.506 88.2657 107.573C86.9912 107.843 85.6317 108 84.2085 108C81.1284 108 78.8979 107.326 77.5384 105.978C76.1789 104.629 75.4992 102.607 75.4992 99.9551V82.4719H73.4175C72.1429 82.4719 71.1021 81.3708 71.1021 80.0225C71.1021 78.6742 72.1429 77.573 73.4175 77.573H75.4992V70.4494C75.4992 69.1011 76.54 68 77.8146 68H79.4077C80.6823 68 81.7231 69.1011 81.7231 70.4494V77.5955H87.5647C88.8393 77.5955 89.8801 78.6966 89.8801 80.0449C89.8801 81.3933 88.8393 82.4944 87.5647 82.4944Z" fill="#1E9EC3"/>
<path d="M98.031 70.4923C98.031 68.5647 99.527 67 101.37 67H110.867C112.992 67 114.9 67.2721 116.613 67.8391C118.326 68.406 119.8 69.2224 121.036 70.2882C122.25 71.354 123.204 72.6466 123.898 74.1886C124.592 75.7306 124.917 77.4994 124.917 79.495C124.917 81.7174 124.548 83.6222 123.789 85.255C123.052 86.8877 122.012 88.2257 120.689 89.2915C119.366 90.3573 117.805 91.151 115.984 91.6726C114.184 92.1941 112.211 92.4436 110.108 92.4436H104.687V104.508C104.687 106.435 103.191 108 101.348 108C99.5054 108 98.0093 106.435 98.0093 104.508V70.4923H98.031ZM104.687 86.9331H108.243C109.653 86.9331 110.954 86.8197 112.124 86.6156C113.317 86.3888 114.336 86.026 115.203 85.4818C116.071 84.9375 116.764 84.2118 117.263 83.2594C117.762 82.3296 118 81.1278 118 79.6538C118 78.3612 117.762 77.25 117.306 76.3429C116.851 75.4358 116.222 74.6875 115.442 74.1206C114.661 73.5536 113.772 73.1455 112.775 72.8733C111.778 72.6012 110.715 72.4878 109.609 72.4878H104.687V86.9331Z" fill="white"/>
<path d="M131.894 104.727V70.2955C131.894 68.4773 133.234 67 134.883 67C136.533 67 137.873 68.4773 137.873 70.2955V104.705C137.873 106.523 136.533 108 134.883 108C133.234 108 131.894 106.545 131.894 104.727Z" fill="white"/>
<path d="M172.687 91.1651C172.687 92.511 171.597 93.5922 170.241 93.5922H151.564V93.8349C151.564 96.8797 152.453 99.1744 154.254 100.741C156.033 102.307 158.412 103.08 161.325 103.08C162.948 103.08 164.393 102.947 165.705 102.66C166.216 102.55 166.728 102.418 167.261 102.263C168.596 101.866 169.974 102.638 170.33 103.962C170.663 105.22 169.952 106.544 168.684 106.919C167.995 107.117 167.284 107.316 166.505 107.47C164.793 107.823 162.926 108 160.902 108C158.723 108 156.678 107.713 154.721 107.117C152.765 106.522 151.053 105.595 149.585 104.337C148.118 103.08 146.961 101.469 146.117 99.5274C145.272 97.5858 144.849 95.269 144.849 92.5552C144.849 90.2384 145.205 88.1203 145.894 86.2007C146.606 84.2811 147.584 82.6263 148.896 81.2584C150.185 79.8904 151.764 78.8313 153.61 78.1032C155.455 77.3751 157.501 77 159.768 77C161.725 77 163.504 77.3089 165.105 77.9488C166.706 78.5886 168.062 79.4712 169.196 80.6406C170.33 81.81 171.197 83.2221 171.82 84.8769C172.442 86.5537 172.753 88.3851 172.753 90.4149V91.1651H172.687ZM165.927 89.047C165.927 88.032 165.794 87.0833 165.549 86.2007C165.305 85.3181 164.905 84.5459 164.393 83.884C163.882 83.2221 163.215 82.6925 162.392 82.2954C161.569 81.8982 160.569 81.6996 159.435 81.6996C157.3 81.6996 155.566 82.3836 154.232 83.7295C152.898 85.0754 152.075 86.8847 151.786 89.1793L165.927 89.047Z" fill="white"/>
<path d="M192.906 92.7228L200.139 103.388C201.464 105.339 200.095 108 197.771 108H197.424C196.468 108 195.578 107.512 195.056 106.714L191.603 101.525C191.559 101.481 191.538 101.415 191.494 101.348L188.996 96.98L186.672 101.282C186.629 101.348 186.607 101.415 186.564 101.481L183.241 106.67C182.719 107.49 181.807 108 180.83 108H180.612C178.288 108 176.942 105.339 178.245 103.41L185.434 92.745L178.723 82.5676C177.441 80.6164 178.81 78 181.112 78H181.329C182.307 78 183.197 78.51 183.74 79.3304L186.955 84.3636C186.976 84.408 187.02 84.4523 187.042 84.5189L189.431 88.776L191.733 84.4523L194.687 79.4412C195.208 78.5543 196.142 78.0222 197.142 78.0222C199.444 78.0222 200.812 80.6386 199.531 82.5898L192.906 92.7228Z" fill="white"/>
<path d="M196.204 27.9851C194.732 19.1701 189.936 11.4515 182.688 6.23856C175.439 1.04804 166.585 -1.01027 157.798 0.466347C149.01 1.94296 141.316 6.75314 136.119 14.0467C130.945 21.3179 128.893 30.2 130.365 39.0149C131.837 47.8299 136.632 55.5485 143.88 60.7614C151.129 65.952 159.983 68.0103 168.771 66.5337C177.558 65.057 185.253 60.2469 190.449 52.9757C195.646 45.6821 197.676 36.8224 196.204 27.9851ZM158.311 3.55381C171.603 1.33889 184.338 8.20739 190.204 19.6176C184.74 15.9037 174.592 15.6352 163.663 19.0806C154.787 13.7559 145.955 11.7647 140.245 13.823C144.728 8.56535 150.995 4.78432 158.311 3.55381ZM182.643 42.9973C179.32 45.7492 175.172 48.2773 170.466 50.2685C167.544 51.5214 164.622 52.4611 161.812 53.1323C161.5 51.7451 160.139 50.8055 158.712 51.0516C158.355 51.1187 158.021 51.2306 157.731 51.4319C155.835 50.2462 153.939 48.8814 152.088 47.3377C147.828 43.8027 144.371 39.8875 141.895 36.0393C143.189 34.3837 144.795 32.7505 146.668 31.1844C147.828 32.1017 149.345 32.5492 150.928 32.2807C153.895 31.7885 155.902 28.9695 155.411 25.9939C155.389 25.8149 155.344 25.6583 155.3 25.5017C156.526 24.8529 157.798 24.2488 159.114 23.6895C161.255 22.7722 163.418 22.0115 165.514 21.4298C167.165 22.5037 168.815 23.7118 170.421 25.0542C176.354 29.9539 180.748 35.6366 183.045 40.8495C182.688 41.1851 182.443 41.6773 182.443 42.2143C182.465 42.4604 182.532 42.7512 182.643 42.9973ZM139.487 18.1633C143.434 13.3532 152.779 14.1586 162.392 19.4834C160.942 19.9756 159.493 20.5349 158.021 21.1613C156.616 21.7654 155.255 22.3918 153.961 23.063C152.757 21.8101 150.973 21.1389 149.144 21.4522C146.178 21.9444 144.17 24.7634 144.661 27.739C144.728 28.1193 144.817 28.4773 144.951 28.8352C143.189 30.2447 141.606 31.699 140.245 33.1756C137.167 27.202 136.677 21.6088 139.487 18.1633ZM133.443 38.5004C132.662 33.8468 132.997 29.2603 134.246 25.0095C134.647 28.2535 136.03 31.9003 138.238 35.6143C136.297 38.2095 135.048 40.8271 134.625 43.2882C134.112 41.7444 133.71 40.156 133.443 38.5004ZM138.818 48.0312C137.636 45.2346 138.193 41.9234 140.156 38.5675C142.81 42.3038 146.267 46.04 150.371 49.4407C152.356 51.074 154.385 52.5506 156.437 53.8482C156.526 53.8929 156.616 53.9601 156.705 54.0048C156.616 54.0048 156.549 54.0272 156.459 54.0272C147.828 54.9892 140.892 52.9085 138.818 48.0312ZM168.28 63.4462C157.775 65.2137 147.583 61.276 140.892 53.8929C144.929 55.638 150.549 56.0855 156.839 55.1458C157.396 56.0855 158.489 56.6224 159.604 56.4211C159.894 56.3763 160.162 56.2868 160.407 56.1526C166.317 59.2625 172.049 60.8509 176.733 60.6943C174.124 62.0143 171.291 62.954 168.28 63.4462ZM183.022 54.1614C179.365 58.5913 171.179 58.2557 162.392 54.0048C165.158 53.2889 167.968 52.3268 170.8 51.1187C175.596 49.0828 179.878 46.5546 183.424 43.8027C183.669 43.937 183.937 44.0041 184.205 44.0265C185.364 48.076 185.074 51.678 183.022 54.1614ZM184.405 40.3126C181.662 34.9431 177.068 29.2827 171.046 24.2935C169.641 23.1301 168.191 22.0339 166.763 21.0495C178.205 18.0962 188.219 19.8413 190.784 25.882C192.59 30.1329 190.316 35.5695 185.297 40.581C185.03 40.4244 184.717 40.3349 184.405 40.3126ZM187.238 52.036C187.505 49.4631 186.992 46.4651 185.743 43.3105C185.989 42.9973 186.145 42.5946 186.145 42.1695C186.145 41.9682 186.123 41.7892 186.056 41.6102C189.646 38.3437 192.234 34.8759 193.483 31.5647C193.996 39.1268 191.609 46.3533 187.238 52.036Z" fill="url(#paint0_linear_2_232)"/>
<path d="M58.447 76.9778C59.6275 77.8308 61.0914 78.1625 62.5317 77.9255C63.972 77.6886 65.247 76.8831 66.097 75.6985C66.947 74.5139 67.2776 73.0449 67.0414 71.5997C66.8053 70.1545 66.0025 68.8751 64.822 68.0222C63.6414 67.1692 62.1775 66.8375 60.7373 67.0745C59.297 67.3114 58.022 68.1169 57.172 69.3016C56.322 70.4862 55.9914 71.9551 56.2275 73.4003C56.4636 74.8455 57.2428 76.1249 58.447 76.9778ZM57.8331 73.3292C58.2581 73.9452 58.8248 74.5612 59.5095 75.1062C59.84 75.3668 60.1706 75.6274 60.5012 75.8406C60.5248 75.8406 60.5248 75.8643 60.5484 75.8643C60.5248 75.8643 60.5248 75.8643 60.5012 75.8643C59.0845 76.0301 57.9512 75.6748 57.597 74.8692C57.4081 74.4191 57.5025 73.8742 57.8331 73.3292ZM57.715 69.9649C58.3762 69.1831 59.8873 69.3015 61.4692 70.1782C61.2331 70.2492 60.997 70.344 60.7609 70.4625C60.5248 70.5572 60.3123 70.6757 60.0998 70.7705C59.9109 70.5572 59.6039 70.4625 59.297 70.5099C58.8012 70.5809 58.4706 71.0548 58.565 71.5523C58.565 71.6234 58.5887 71.6708 58.6123 71.7419C58.3289 71.9788 58.0692 72.2157 57.8331 72.4526C57.3373 71.4575 57.2428 70.5335 57.715 69.9649ZM64.822 74.04C64.2789 74.4902 63.5942 74.9166 62.815 75.2483C62.3428 75.4615 61.847 75.6037 61.3984 75.7221C61.3512 75.4852 61.115 75.3431 60.8789 75.3905C60.8081 75.3905 60.7609 75.4142 60.7137 75.4615C60.4067 75.272 60.0998 75.0351 59.7928 74.7981C59.0845 74.2295 58.5178 73.5662 58.1164 72.9502C58.3289 72.6895 58.5887 72.4052 58.8956 72.1446C59.0845 72.2868 59.3442 72.3579 59.6039 72.3342C60.0998 72.2631 60.4303 71.7892 60.3359 71.2917C60.3359 71.268 60.3359 71.2443 60.3123 71.2206C60.5248 71.1259 60.7137 71.0074 60.9498 70.9126C61.3039 70.7705 61.6581 70.6283 62.0123 70.5335C62.272 70.6994 62.5553 70.9126 62.815 71.1258C63.8303 71.9551 64.5623 72.9265 64.9164 73.8031C64.8456 73.8505 64.7984 73.9452 64.822 74.04C64.822 74.04 64.822 74.0163 64.822 74.04ZM62.4373 77.4043C60.7137 77.6886 59.0373 77.0489 57.9275 75.8406C58.5887 76.1249 59.5095 76.196 60.5484 76.0538C60.6428 76.196 60.8081 76.2908 60.997 76.2671C61.0442 76.2671 61.0914 76.2434 61.1387 76.2197C62.1067 76.7409 63.0512 77.0015 63.8303 76.9778C63.4053 77.1674 62.9331 77.3332 62.4373 77.4043ZM64.8692 75.888C64.2789 76.6225 62.9331 76.5514 61.4692 75.8643C61.9178 75.7458 62.39 75.58 62.8387 75.3905C63.6178 75.0588 64.3262 74.6323 64.9164 74.1822C64.9637 74.2058 64.9873 74.2058 65.0345 74.2058C65.247 74.8692 65.1998 75.4852 64.8692 75.888ZM62.9095 70.9837C62.6734 70.7942 62.4373 70.6046 62.2012 70.4388C64.0901 69.9649 65.7192 70.2492 66.1442 71.2443C66.4512 71.9551 66.0498 72.9028 65.1526 73.732C64.7276 72.808 63.9248 71.8366 62.9095 70.9837ZM65.5539 75.5326C65.6012 75.0825 65.5067 74.5375 65.247 73.9689C65.247 73.9452 65.247 73.9452 65.247 73.9215V73.8978C65.8845 73.3292 66.3567 72.7369 66.5692 72.1446C66.6637 73.424 66.2859 74.6086 65.5539 75.5326ZM60.8081 67.572C62.9803 67.2166 65.0817 68.3302 66.0498 70.2019C65.1526 69.5859 63.4762 69.5385 61.6817 70.1071C60.2178 69.2305 58.7775 68.8988 57.8331 69.2542C58.565 68.4012 59.6039 67.7615 60.8081 67.572ZM57.5025 72.8317C57.1956 73.2582 56.9831 73.6846 56.9123 74.0874C56.8178 73.8268 56.7706 73.5662 56.7234 73.3055C56.6053 72.5474 56.6525 71.7892 56.865 71.0785C56.9123 71.6234 57.1484 72.2394 57.5025 72.8317Z" fill="url(#paint1_linear_2_232)"/>
<defs>
<linearGradient id="paint0_linear_2_232" x1="195.731" y1="25.6143" x2="130.828" y2="41.2983" gradientUnits="userSpaceOnUse">
<stop offset="0.001413" stop-color="white"/>
<stop offset="0.5379" stop-color="#1E9EC3"/>
</linearGradient>
<linearGradient id="paint1_linear_2_232" x1="65.5179" y1="68.8548" x2="57.4814" y2="76.3483" gradientUnits="userSpaceOnUse">
<stop stop-color="white"/>
<stop offset="0.5379" stop-color="#1E9EC3"/>
</linearGradient>
</defs>
</svg>
