<svg width="30" height="28" viewBox="0 0 30 28" fill="none" xmlns="http://www.w3.org/2000/svg">
<path d="M20.6668 9.4502C22.877 9.4502 24.9966 10.3036 26.5594 11.8226C28.1222 13.3417 29.0002 15.4019 29.0002 17.5502V27.0002H23.4446V17.5502C23.4446 16.8341 23.1519 16.1474 22.631 15.641C22.1101 15.1347 21.4035 14.8502 20.6668 14.8502C19.9301 14.8502 19.2236 15.1347 18.7026 15.641C18.1817 16.1474 17.8891 16.8341 17.8891 17.5502V27.0002H12.3335V17.5502C12.3335 15.4019 13.2115 13.3417 14.7743 11.8226C16.3371 10.3036 18.4567 9.4502 20.6668 9.4502V9.4502Z" stroke="#1E9EC3" stroke-width="2" stroke-linecap="round" stroke-linejoin="round"/>
<path d="M6.33333 10.75H1V27H6.33333V10.75Z" stroke="#1E9EC3" stroke-width="2" stroke-linecap="round" stroke-linejoin="round"/>
<path d="M3.66667 6.2C5.13943 6.2 6.33333 5.03594 6.33333 3.6C6.33333 2.16406 5.13943 1 3.66667 1C2.19391 1 1 2.16406 1 3.6C1 5.03594 2.19391 6.2 3.66667 6.2Z" stroke="#1E9EC3" stroke-width="2" stroke-linecap="round" stroke-linejoin="round"/>
</svg>
