<svg width="24" height="22" viewBox="0 0 24 22" fill="none" xmlns="http://www.w3.org/2000/svg">
<path d="M16.4529 7.49988C18.1894 7.49988 19.8548 8.15633 21.0827 9.32482C22.3107 10.4933 23.0005 12.0781 23.0005 13.7306V20.9998H18.6354V13.7306C18.6354 13.1798 18.4055 12.6515 17.9962 12.262C17.5869 11.8725 17.0317 11.6537 16.4529 11.6537C15.874 11.6537 15.3189 11.8725 14.9096 12.262C14.5003 12.6515 14.2703 13.1798 14.2703 13.7306V20.9998H9.90527V13.7306C9.90527 12.0781 10.5951 10.4933 11.823 9.32482C13.0509 8.15633 14.7164 7.49988 16.4529 7.49988V7.49988Z" stroke="white" stroke-width="2" stroke-linecap="round" stroke-linejoin="round"/>
<path d="M5.1905 8.5H1V20.9999H5.1905V8.5Z" stroke="white" stroke-width="2" stroke-linecap="round" stroke-linejoin="round"/>
<path d="M3.09525 4.99992C4.25242 4.99992 5.1905 4.10451 5.1905 2.99996C5.1905 1.89541 4.25242 1 3.09525 1C1.93808 1 1 1.89541 1 2.99996C1 4.10451 1.93808 4.99992 3.09525 4.99992Z" stroke="white" stroke-width="2" stroke-linecap="round" stroke-linejoin="round"/>
</svg>
