<svg width="74" height="40" viewBox="0 0 74 40" fill="none" xmlns="http://www.w3.org/2000/svg">
<path d="M1.22551 24.9622C1.77007 24.9622 2.24148 25.3278 2.38779 25.8477L4.36284 33.0287C4.41161 33.2318 4.4685 33.4918 4.54978 33.8086C4.63106 34.1254 4.70421 34.4585 4.76923 34.8078C4.84238 35.1571 4.9074 35.5064 4.9643 35.8557C5.02932 36.205 5.07809 36.5218 5.12685 36.798H5.17562C5.22439 36.5218 5.27315 36.205 5.33818 35.8557C5.4032 35.5064 5.46822 35.1571 5.5495 34.8078C5.63078 34.4585 5.70393 34.1254 5.7852 33.8167C5.86648 33.508 5.9315 33.2399 5.99653 33.0206L8.05286 25.8314C8.19916 25.3115 8.67057 24.9622 9.20701 24.9622H9.77595C10.3124 24.9622 10.7838 25.3197 10.9301 25.8314L13.0108 32.98C13.0758 33.1668 13.1409 33.4268 13.2221 33.7517C13.3034 34.0767 13.3766 34.4178 13.4578 34.7753C13.5391 35.1327 13.6123 35.4901 13.6773 35.8557C13.7504 36.2212 13.8073 36.538 13.8561 36.798H13.9049C13.9536 36.5218 14.0105 36.205 14.0837 35.8638C14.1568 35.5226 14.2219 35.1733 14.295 34.824C14.3682 34.4747 14.4413 34.1335 14.5145 33.8086C14.5957 33.4837 14.6608 33.1993 14.7258 32.9719L16.587 25.8558C16.7252 25.3278 17.2048 24.9541 17.7493 24.9541C18.5458 24.9541 19.1229 25.7177 18.9116 26.4813L15.4573 38.7557C15.311 39.2756 14.8396 39.633 14.295 39.633H13.5147C12.9702 39.633 12.4988 39.2756 12.3525 38.7476L10.4262 31.7777C10.2555 31.1279 10.0929 30.5024 9.94664 29.9094C9.80034 29.3164 9.63778 28.6746 9.4671 27.976H9.41833C9.24765 28.6746 9.09322 29.3164 8.95504 29.885C8.81687 30.4617 8.66245 31.071 8.49176 31.729L6.63049 38.7395C6.49232 39.2675 6.01278 39.633 5.46822 39.633H4.73672C4.20028 39.633 3.72887 39.2756 3.58257 38.7638L0.0469799 26.4975C-0.172471 25.7258 0.404603 24.9622 1.20113 24.9622H1.22551Z" fill="#1E9EC3"/>
<path d="M21.5078 30.9046V38.4534C21.5078 39.107 21.9955 39.6331 22.6014 39.6331C23.2073 39.6331 23.695 39.107 23.695 38.4534V30.9046C23.695 30.251 23.2073 29.7249 22.6014 29.7249C21.9955 29.7249 21.5078 30.2589 21.5078 30.9046Z" fill="#1E9EC3"/>
<path d="M32.2047 30.5074H29.9611V36.393C29.9611 36.9317 30.0916 37.2935 30.3445 37.4784C30.6056 37.6634 30.9483 37.7518 31.3888 37.7518C31.6989 37.7518 32.0334 37.7196 32.3842 37.6473C32.4087 37.6392 32.425 37.6392 32.4494 37.6312C32.9308 37.5347 33.404 37.8322 33.5019 38.3066L33.5182 38.3709C33.6161 38.8373 33.3224 39.2875 32.8574 39.4001C32.735 39.4322 32.6126 39.4564 32.4739 39.4805C31.9844 39.577 31.4623 39.6333 30.9156 39.6333C29.7327 39.6333 28.876 39.392 28.3539 38.9096C27.8317 38.4272 27.5707 37.7036 27.5707 36.7548V30.4993H26.7711C26.2816 30.4993 25.8818 30.1053 25.8818 29.6229C25.8818 29.1405 26.2816 28.7465 26.7711 28.7465H27.5707V26.1977C27.5707 25.7153 27.9704 25.3213 28.4599 25.3213H29.0718C29.5613 25.3213 29.9611 25.7153 29.9611 26.1977V28.7546H32.2047C32.6942 28.7546 33.094 29.1485 33.094 29.631C33.094 30.1134 32.6942 30.5074 32.2047 30.5074Z" fill="#1E9EC3"/>
<path d="M36.0971 26.2044C36.0971 25.5143 36.6646 24.9541 37.3637 24.9541H40.9661C41.7721 24.9541 42.4959 25.0515 43.1457 25.2545C43.7954 25.4575 44.3547 25.7498 44.8235 26.1313C45.2841 26.5129 45.646 26.9757 45.9092 27.5278C46.1724 28.0799 46.2957 28.7131 46.2957 29.4276C46.2957 30.2233 46.1559 30.9052 45.8681 31.4898C45.5884 32.0744 45.1936 32.5534 44.6919 32.935C44.1902 33.3166 43.598 33.6007 42.9072 33.7874C42.2245 33.9742 41.4761 34.0635 40.6783 34.0635H38.6221V38.3827C38.6221 39.0728 38.0546 39.633 37.3555 39.633C36.6564 39.633 36.0889 39.0728 36.0889 38.3827V26.2044H36.0971ZM38.6221 32.0906H39.9709C40.5055 32.0906 40.999 32.05 41.4432 31.9769C41.8955 31.8957 42.2821 31.7658 42.6111 31.571C42.9401 31.3761 43.2032 31.1163 43.3924 30.7753C43.5816 30.4425 43.6721 30.0122 43.6721 29.4844C43.6721 29.0217 43.5816 28.6238 43.4089 28.2991C43.2361 27.9743 42.9976 27.7064 42.7015 27.5034C42.4055 27.3005 42.0682 27.1543 41.6899 27.0569C41.3116 26.9595 40.9086 26.9189 40.4891 26.9189H38.6221V32.0906Z" fill="#2D2D2D"/>
<path d="M48.4824 38.4613V26.1339C48.4824 25.483 48.9726 24.9541 49.576 24.9541C50.1794 24.9541 50.6696 25.483 50.6696 26.1339V38.4532C50.6696 39.1041 50.1794 39.633 49.576 39.633C48.9726 39.633 48.4824 39.1123 48.4824 38.4613Z" fill="#2D2D2D"/>
<path d="M63.4042 33.8222C63.4042 34.3162 63.0056 34.7129 62.5095 34.7129H55.6778V34.802C55.6778 35.9193 56.0032 36.7614 56.6619 37.3363C57.3126 37.9112 58.1828 38.1946 59.2482 38.1946C59.8419 38.1946 60.3706 38.146 60.8504 38.0407C61.0375 38.0003 61.2245 37.9517 61.4197 37.895C61.9077 37.7493 62.4119 38.0326 62.5421 38.5185C62.6641 38.98 62.4038 39.4658 61.9402 39.6034C61.6881 39.6763 61.4278 39.7492 61.1432 39.8059C60.517 39.9354 59.8338 40.0002 59.0937 40.0002C58.2967 40.0002 57.5484 39.8949 56.8327 39.6763C56.117 39.4577 55.4908 39.1176 54.954 38.6561C54.4172 38.1946 53.9943 37.6035 53.6853 36.891C53.3762 36.1784 53.2217 35.3283 53.2217 34.3324C53.2217 33.4822 53.3518 32.7049 53.6039 32.0004C53.8642 31.296 54.222 30.6887 54.7019 30.1867C55.1736 29.6847 55.751 29.2961 56.4261 29.0289C57.1011 28.7617 57.8493 28.624 58.6789 28.624C59.3946 28.624 60.0452 28.7374 60.6308 28.9722C61.2164 29.207 61.7125 29.5309 62.1273 29.96C62.5421 30.3892 62.8592 30.9074 63.087 31.5146C63.3147 32.13 63.4286 32.802 63.4286 33.547V33.8222H63.4042ZM60.9317 33.0449C60.9317 32.6725 60.8829 32.3243 60.7935 32.0004C60.704 31.6766 60.5576 31.3932 60.3706 31.1503C60.1835 30.9074 59.9395 30.713 59.6386 30.5673C59.3377 30.4215 58.9717 30.3487 58.5569 30.3487C57.7761 30.3487 57.1418 30.5997 56.6538 31.0936C56.1658 31.5875 55.8649 32.2514 55.7592 33.0935L60.9317 33.0449Z" fill="#2D2D2D"/>
<path d="M71.0422 34.0269L73.8028 37.9408C74.3085 38.6568 73.7862 39.6332 72.8992 39.6332H72.7665C72.4018 39.6332 72.0619 39.4542 71.8629 39.1613L70.5447 37.2573C70.5282 37.241 70.5199 37.2166 70.5033 37.1922L69.5499 35.5892L68.6629 37.1678C68.6463 37.1922 68.638 37.2166 68.6214 37.241L67.353 39.145C67.154 39.4461 66.8058 39.6332 66.4328 39.6332H66.3499C65.4628 39.6332 64.9488 38.6568 65.4462 37.9489L68.1903 34.0351L65.6286 30.3002C65.1395 29.5842 65.6618 28.624 66.5405 28.624H66.6235C66.9965 28.624 67.3364 28.8112 67.5437 29.1122L68.7706 30.9593C68.7789 30.9756 68.7955 30.9919 68.8038 31.0163L69.7157 32.5785L70.5945 30.9919L71.722 29.1529C71.9209 28.8274 72.2774 28.6322 72.6588 28.6322C73.5375 28.6322 74.0598 29.5923 73.5707 30.3084L71.0422 34.0269Z" fill="#2D2D2D"/>
<path d="M72.0056 10.2698C71.4671 7.03493 69.7132 4.20238 67.0618 2.28939C64.4104 0.384603 61.1717 -0.370741 57.9574 0.171137C54.7431 0.713015 51.9286 2.47822 50.0278 5.15477C48.1351 7.82311 47.3845 11.0826 47.923 14.3174C48.4614 17.5523 50.2154 20.3848 52.8668 22.2978C55.5181 24.2026 58.7569 24.958 61.9712 24.4161C65.1854 23.8742 68 22.109 69.9008 19.4407C71.8016 16.7641 72.544 13.5128 72.0056 10.2698ZM58.145 1.30415C63.0072 0.491337 67.6655 3.01189 69.8111 7.19914C67.8123 5.83623 64.1004 5.7377 60.103 7.00209C56.8561 5.04804 53.6255 4.31733 51.537 5.07267C53.1768 3.14326 55.4692 1.75572 58.145 1.30415ZM67.0455 15.7789C65.8299 16.7887 64.3125 17.7165 62.5912 18.4472C61.5225 18.907 60.4538 19.2518 59.4258 19.4981C59.3116 18.9891 58.814 18.6443 58.2919 18.7346C58.1613 18.7592 58.039 18.8003 57.9329 18.8741C57.2395 18.439 56.546 17.9382 55.8689 17.3717C54.3107 16.0744 53.0462 14.6376 52.1407 13.2255C52.6139 12.6179 53.2012 12.0186 53.8865 11.4438C54.3107 11.7805 54.8655 11.9447 55.4447 11.8462C56.5297 11.6655 57.264 10.631 57.0845 9.53906C57.0763 9.47338 57.06 9.41591 57.0437 9.35844C57.4924 9.12034 57.9574 8.89866 58.4387 8.6934C59.2219 8.35678 60.0132 8.07763 60.7801 7.86417C61.3838 8.25826 61.9875 8.70162 62.5749 9.19423C64.7449 10.9923 66.352 13.0777 67.1923 14.9907C67.0618 15.1138 66.9721 15.2945 66.9721 15.4915C66.9802 15.5818 67.0047 15.6886 67.0455 15.7789ZM51.2596 6.66547C52.7036 4.90026 56.1218 5.19583 59.638 7.14987C59.1077 7.3305 58.5774 7.53576 58.039 7.76564C57.525 7.98732 57.0274 8.21721 56.5542 8.46352C56.1137 8.00374 55.461 7.75743 54.7921 7.87238C53.707 8.053 52.9728 9.0875 53.1523 10.1795C53.1768 10.319 53.2094 10.4504 53.2583 10.5818C52.6139 11.099 52.0346 11.6327 51.537 12.1746C50.4112 9.98242 50.2317 7.92985 51.2596 6.66547ZM49.0488 14.1286C48.7633 12.4209 48.8856 10.7378 49.3425 9.17781C49.4893 10.3683 49.9951 11.7066 50.8028 13.0695C50.093 14.0219 49.6362 14.9825 49.4812 15.8856C49.2935 15.3191 49.1467 14.7362 49.0488 14.1286ZM51.0149 17.6262C50.5825 16.5999 50.7865 15.3848 51.5044 14.1532C52.4752 15.5244 53.7397 16.8955 55.2408 18.1434C55.9668 18.7428 56.7092 19.2847 57.4598 19.7609C57.4924 19.7773 57.525 19.8019 57.5576 19.8183C57.525 19.8183 57.5005 19.8265 57.4679 19.8265C54.3107 20.1796 51.7736 19.416 51.0149 17.6262ZM61.7917 23.2831C57.9492 23.9317 54.221 22.4867 51.7736 19.7773C53.2502 20.4177 55.306 20.5819 57.6066 20.2371C57.8105 20.5819 58.2103 20.7789 58.6182 20.705C58.7243 20.6886 58.8221 20.6558 58.9119 20.6065C61.0738 21.7477 63.1704 22.3307 64.8836 22.2732C63.9291 22.7576 62.893 23.1024 61.7917 23.2831ZM67.1842 19.8758C65.8462 21.5014 62.8522 21.3783 59.638 19.8183C60.6496 19.5556 61.6775 19.2026 62.7135 18.7592C64.4675 18.0121 66.0339 17.0843 67.331 16.0744C67.4207 16.1237 67.5186 16.1483 67.6165 16.1565C68.0408 17.6426 67.9347 18.9645 67.1842 19.8758ZM67.69 14.7936C66.6865 12.8232 65.006 10.746 62.8033 8.91508C62.2893 8.48815 61.759 8.08584 61.2369 7.72459C65.422 6.64084 69.085 7.28124 70.0232 9.49801C70.684 11.058 69.8519 13.0531 68.0163 14.8922C67.9184 14.8347 67.8042 14.8019 67.69 14.7936ZM68.726 19.0958C68.8239 18.1516 68.6363 17.0515 68.1794 15.8938C68.2692 15.7789 68.3263 15.6311 68.3263 15.4751C68.3263 15.4012 68.3181 15.3355 68.2937 15.2698C69.6071 14.0711 70.5534 12.7985 71.0103 11.5834C71.1979 14.3585 70.325 17.0104 68.726 19.0958Z" fill="url(#paint0_linear_2_570)"/>
<path d="M21.542 28.2828C21.9346 28.5674 22.4214 28.678 22.9003 28.599C23.3792 28.52 23.8032 28.2512 24.0859 27.856C24.3685 27.4608 24.4784 26.9708 24.3999 26.4886C24.3214 26.0065 24.0545 25.5797 23.6619 25.2951C23.2693 25.0106 22.7825 24.8999 22.3036 24.9789C21.8247 25.058 21.4007 25.3267 21.118 25.7219C20.8354 26.1171 20.7255 26.6072 20.804 27.0893C20.8825 27.5715 21.1416 27.9983 21.542 28.2828ZM21.3379 27.0656C21.4792 27.2711 21.6676 27.4766 21.8953 27.6584C22.0052 27.7454 22.1152 27.8323 22.2251 27.9034C22.2329 27.9034 22.2329 27.9113 22.2408 27.9113C22.2329 27.9113 22.2329 27.9113 22.2251 27.9113C21.754 27.9667 21.3771 27.8481 21.2594 27.5794C21.1965 27.4292 21.228 27.2474 21.3379 27.0656ZM21.2986 25.9432C21.5185 25.6824 22.0209 25.7219 22.547 26.0144C22.4685 26.0381 22.39 26.0697 22.3115 26.1092C22.2329 26.1408 22.1623 26.1804 22.0916 26.212C22.0288 26.1408 21.9267 26.1092 21.8247 26.125C21.6598 26.1487 21.5499 26.3068 21.5813 26.4728C21.5813 26.4965 21.5891 26.5123 21.597 26.536C21.5028 26.6151 21.4164 26.6941 21.3379 26.7732C21.173 26.4412 21.1416 26.1329 21.2986 25.9432ZM23.6619 27.3027C23.4813 27.4529 23.2536 27.5952 22.9945 27.7058C22.8375 27.777 22.6726 27.8244 22.5234 27.8639C22.5077 27.7849 22.4292 27.7375 22.3507 27.7533C22.3272 27.7533 22.3115 27.7612 22.2957 27.777C22.1937 27.7137 22.0916 27.6347 21.9895 27.5557C21.754 27.366 21.5656 27.1446 21.4321 26.9391C21.5028 26.8522 21.5891 26.7574 21.6912 26.6704C21.754 26.7178 21.8404 26.7415 21.9267 26.7336C22.0916 26.7099 22.2015 26.5518 22.1701 26.3859C22.1701 26.378 22.1701 26.3701 22.1623 26.3622C22.2329 26.3305 22.2957 26.291 22.3743 26.2594C22.492 26.212 22.6098 26.1645 22.7276 26.1329C22.8139 26.1883 22.9082 26.2594 22.9945 26.3305C23.3321 26.6072 23.5755 26.9312 23.6933 27.2237C23.6697 27.2395 23.654 27.2711 23.6619 27.3027C23.6619 27.3027 23.6619 27.2948 23.6619 27.3027ZM22.8689 28.4251C22.2957 28.5199 21.7383 28.3065 21.3693 27.9034C21.5891 27.9983 21.8953 28.022 22.2408 27.9746C22.2722 28.022 22.3272 28.0536 22.39 28.0457C22.4057 28.0457 22.4214 28.0378 22.4371 28.0299C22.759 28.2038 23.073 28.2907 23.3321 28.2828C23.1908 28.3461 23.0338 28.4014 22.8689 28.4251ZM23.6776 27.9192C23.4813 28.1643 23.0338 28.1406 22.547 27.9113C22.6962 27.8718 22.8532 27.8165 23.0024 27.7533C23.2615 27.6426 23.497 27.5003 23.6933 27.3502C23.709 27.3581 23.7169 27.3581 23.7326 27.3581C23.8032 27.5794 23.7875 27.7849 23.6776 27.9192ZM23.0259 26.2831C22.9474 26.2199 22.8689 26.1566 22.7904 26.1013C23.4185 25.9432 23.9602 26.0381 24.1016 26.3701C24.2036 26.6072 24.0702 26.9233 23.7718 27.2C23.6305 26.8917 23.3635 26.5677 23.0259 26.2831ZM23.9053 27.8007C23.921 27.6505 23.8896 27.4687 23.8032 27.279C23.8032 27.2711 23.8032 27.2711 23.8032 27.2632V27.2553C24.0152 27.0656 24.1722 26.868 24.2429 26.6704C24.2743 27.0972 24.1487 27.4924 23.9053 27.8007ZM22.3272 25.1449C23.0495 25.0264 23.7483 25.3979 24.0702 26.0223C23.7718 25.8168 23.2144 25.801 22.6177 25.9907C22.1309 25.6982 21.6519 25.5876 21.3379 25.7061C21.5813 25.4216 21.9267 25.2082 22.3272 25.1449ZM21.228 26.8996C21.1259 27.0419 21.0552 27.1842 21.0317 27.3185C21.0003 27.2316 20.9846 27.1446 20.9689 27.0577C20.9296 26.8048 20.9453 26.5519 21.016 26.3147C21.0317 26.4965 21.1102 26.702 21.228 26.8996Z" fill="url(#paint1_linear_2_570)"/>
<defs>
<linearGradient id="paint0_linear_2_570" x1="71.8328" y1="9.39978" x2="48.084" y2="15.1201" gradientUnits="userSpaceOnUse">
<stop offset="0.001413" stop-color="#2D2D2D"/>
<stop offset="0.5379" stop-color="#1E9EC3"/>
</linearGradient>
<linearGradient id="paint1_linear_2_570" x1="23.8971" y1="25.5732" x2="21.2166" y2="28.0644" gradientUnits="userSpaceOnUse">
<stop stop-color="#2D2D2D"/>
<stop offset="0.5379" stop-color="#1E9EC3"/>
</linearGradient>
</defs>
</svg>
