<svg width="26" height="19" viewBox="0 0 26 19" fill="none" xmlns="http://www.w3.org/2000/svg">
<path d="M0.907027 0C0.415032 0 0 0.43009 0 0.939959V17.2316C0 17.7415 0.415021 18.1716 0.907027 18.1716H25.093C25.585 18.1716 26 17.7415 26 17.2316V0.939959C26 0.430101 25.585 0 25.093 0H0.907027ZM2.11622 1.25309H23.8836L12.9999 11.6804L2.11622 1.25309ZM1.20919 2.07545L8.19072 8.77226L1.20919 16.0073V2.07545ZM24.7905 2.07545V16.0073L17.809 8.77226L24.7905 2.07545ZM9.07934 9.61426L12.594 12.992V12.9923C12.8245 13.2088 13.1758 13.2088 13.4063 12.9923L16.9209 9.61447L23.9689 16.9183H2.03146L9.07939 9.61447L9.07934 9.61426Z" fill="#1E9EC3"/>
</svg>
