<svg width="21" height="40" viewBox="0 0 21 40" fill="none" xmlns="http://www.w3.org/2000/svg">
<path fill-rule="evenodd" clip-rule="evenodd" d="M1.90198 0H18.7647C19.779 0 20.6667 0.883371 20.6667 1.89287V38.1071C20.6667 39.1166 19.779 40 18.7647 40H1.90198C0.887694 40 0 39.1166 0 38.1071V1.89287C0 0.883447 0.887619 0 1.90198 0ZM10.3967 1.38812C10.5236 1.38812 10.7772 1.51445 10.7772 1.76681C10.7772 1.89314 10.5236 2.1455 10.3967 2.1455C10.1431 2.1455 10.0162 1.89314 10.0162 1.76681C10.0162 1.51445 10.1431 1.38812 10.3967 1.38812ZM6.33954 2.9023H14.3276C14.7081 2.9023 14.7081 3.53335 14.3276 3.53335H6.33954C6.08597 3.53335 6.08597 2.9023 6.33954 2.9023ZM1.9019 5.55219C1.77497 5.55219 1.77497 5.55219 1.77497 5.67852V35.079C1.77497 35.079 1.77497 35.2053 1.9019 35.2053H18.7646C18.8916 35.2053 19.0182 35.079 19.0182 35.079V5.67852C19.0182 5.55219 18.8913 5.55219 18.7646 5.55219H1.9019Z" fill="white"/>
</svg>
