<svg width="22" height="22" viewBox="0 0 22 22" fill="none" xmlns="http://www.w3.org/2000/svg">
<path d="M13.426 15.2057C13.7826 14.8504 13.7826 14.8504 14.211 14.4242C14.6084 14.0289 14.9209 13.7182 15.1203 13.5207C16.1132 12.5368 17.4397 12.5368 18.4345 13.5223C19.3591 14.4384 20.2958 15.3742 21.2487 16.3342C22.2553 17.3483 22.2489 18.6753 21.2384 19.6949C21.0384 19.8966 20.7108 20.1367 20.2654 20.4234C20.1661 20.4874 20.0616 20.5531 19.9527 20.6201C19.6596 20.8011 19.3467 20.9849 19.0338 21.1626C18.8462 21.2692 18.6998 21.3502 18.6277 21.3891C17.4835 22.049 15.6249 22.1919 14.433 21.7314C14.3132 21.695 14.0993 21.6223 13.8043 21.5103C13.3189 21.326 12.7797 21.0961 12.1999 20.8176C10.546 20.0232 8.89268 18.9969 7.34798 17.7119C6.72748 17.196 6.13626 16.6468 5.57799 16.0634C5.12769 15.5927 4.69969 15.1021 4.29337 14.5942C2.95545 12.9213 1.90521 11.1309 1.10849 9.34015C0.829357 8.71244 0.601583 8.12849 0.4211 7.60308C0.311579 7.28408 0.241406 7.05267 0.222023 6.97165C-0.226535 5.73638 0.0277892 3.87701 0.775828 2.78259C0.822544 2.7103 0.904344 2.58627 1.01232 2.42755C1.19201 2.16281 1.37868 1.89807 1.56379 1.64961C1.64404 1.54185 1.72255 1.43933 1.79873 1.34263C1.99432 1.09456 2.17168 0.889516 2.33105 0.732728C3.32566 -0.245202 4.64983 -0.243863 5.64618 0.734472C6.05229 1.13293 7.80677 2.88819 8.44141 3.52815C9.46838 4.56463 9.47071 5.87472 8.44509 6.90534C8.29118 7.06 7.9568 7.39489 7.49583 7.85653C7.10427 8.24839 7.10427 8.24839 6.77882 8.57399C6.61095 8.74201 6.55124 8.80151 6.51267 8.84027C6.57799 9.00597 6.68616 9.26237 6.83387 9.5814C7.1194 10.1986 7.44683 10.8159 7.80888 11.3888C8.20355 12.0131 8.61528 12.5449 9.03574 12.9547C9.42382 13.3332 9.88709 13.6995 10.4091 14.0499C11.0186 14.459 11.6747 14.8249 12.3313 15.1416C12.6713 15.3055 12.9442 15.4249 13.1301 15.5001C13.1724 15.4581 13.236 15.3949 13.4259 15.2057L13.426 15.2057ZM6.48454 8.76781C6.48532 8.77014 6.48629 8.77227 6.48706 8.7746C6.48648 8.77246 6.48551 8.77014 6.48454 8.76781ZM20.4269 17.1495C19.4761 16.1919 18.5416 15.2582 17.6193 14.3444C17.076 13.806 16.4769 13.806 15.9352 14.3429C15.7367 14.5396 15.4244 14.8499 15.0299 15.2423C14.5996 15.6706 14.5996 15.6706 14.2429 16.0256C13.9578 16.3096 13.9578 16.3096 13.8864 16.3807C13.6028 16.6631 13.1291 16.7538 12.7763 16.6049C12.5817 16.5295 12.2506 16.3877 11.8282 16.184C11.1256 15.8452 10.4229 15.4532 9.76377 15.0109C9.18689 14.6237 8.66971 14.2145 8.22736 13.7833C7.7348 13.3033 7.26956 12.7021 6.83014 12.0069C6.43858 11.3876 6.08831 10.727 5.78283 10.0669C5.59926 9.67023 5.47054 9.35955 5.40599 9.18804C5.25906 8.82253 5.3583 8.35702 5.63434 8.08087L5.95981 7.75547C6.28508 7.42989 6.28508 7.42988 6.67548 7.03915C7.13703 6.57713 7.47101 6.24261 7.62415 6.08856C8.20023 5.50987 8.19909 4.92825 7.61891 4.34276C6.98794 3.70652 5.23636 1.95413 4.8349 1.56015C4.28864 1.02373 3.68675 1.02313 3.14302 1.55782C3.02419 1.67468 2.8761 1.84581 2.70803 2.05882C2.63864 2.1468 2.56672 2.24119 2.49248 2.3408C2.3186 2.57433 2.14104 2.82569 1.97028 3.07746C1.86774 3.22843 1.79059 3.34529 1.74 3.42301C1.1916 4.22555 0.990574 5.69555 1.32556 6.62421C1.35328 6.72829 1.41569 6.93391 1.5161 7.22677C1.68591 7.72116 1.90146 8.27351 2.16643 8.86942C2.92493 10.5747 3.92595 12.2807 5.19757 13.8709C5.58273 14.3525 5.98828 14.8173 6.4147 15.2629C6.94195 15.8138 7.50122 16.3332 8.08837 16.8216C9.55501 18.0416 11.1284 19.0183 12.7011 19.7738C13.2506 20.0376 13.7599 20.2546 14.2156 20.4277C14.4854 20.5302 14.6748 20.5946 14.8096 20.6372C15.7152 20.9859 17.2082 20.8711 18.0619 20.3789C18.1408 20.336 18.2809 20.2583 18.462 20.1556C18.7634 19.9843 19.0646 19.8074 19.3447 19.6347C19.4475 19.5713 19.5457 19.5095 19.6386 19.4498C20.0162 19.2066 20.2924 19.0042 20.4157 18.8798C20.9808 18.3097 20.9837 17.7104 20.427 17.1494L20.4269 17.1495Z" fill="#1E9EC3"/>
</svg>
