<svg width="40" height="40" viewBox="0 0 40 40" fill="none" xmlns="http://www.w3.org/2000/svg">
<path d="M1.92569 24.4407H3.85087C4.20747 25.7907 4.77791 27.0693 5.41944 28.277L4.06464 29.627C3.28033 30.4085 3.28033 31.6163 4.06464 32.3978L7.62957 35.9502C7.98616 36.3055 8.485 36.5186 8.98437 36.5186C9.48374 36.5186 9.98252 36.3055 10.3392 35.9502L11.694 34.6002C12.906 35.3108 14.1897 35.8079 15.5438 36.1632V38.0816C15.5438 39.1471 16.3993 40 17.469 40H22.5315C23.6007 40 24.4567 39.1476 24.4567 38.0816V36.1632C25.8115 35.8079 27.0946 35.2394 28.3065 34.6002L29.6613 35.9502C30.0179 36.3055 30.5168 36.5186 31.0161 36.5186C31.5155 36.5186 32.0143 36.3055 32.3709 35.9502L35.9359 32.3978C36.7202 31.6163 36.7202 30.4085 35.9359 29.627L34.5811 28.277C35.2942 27.0692 35.7931 25.7901 36.1496 24.4407H38.0748C39.1441 24.4407 40 23.5883 40 22.5223V17.4777C40 16.4122 39.1446 15.5593 38.0748 15.5593H36.1496C35.793 14.2093 35.2226 12.9307 34.5811 11.723L35.9359 10.373C36.7202 9.59145 36.7202 8.38368 35.9359 7.60216L32.3709 4.04981C32.0143 3.69447 31.5155 3.48137 31.0161 3.48137C30.5168 3.48137 30.018 3.69447 29.6613 4.04981L28.3065 5.39983C27.0945 4.68915 25.8108 4.19209 24.4567 3.83679V1.9184C24.4567 0.852893 23.6012 0 22.5315 0H17.469C16.3997 0 15.5438 0.852411 15.5438 1.9184L15.5433 3.83679C14.1885 4.19213 12.9054 4.76056 11.6935 5.39983L10.3387 4.04981C9.98208 3.69447 9.48324 3.48137 8.98387 3.48137C8.4845 3.48137 7.98572 3.69447 7.62907 4.04981L4.06414 7.60216C3.27984 8.3837 3.27984 9.59148 4.06414 10.373L5.41894 11.723C4.70576 12.9308 4.20693 14.2099 3.85038 15.5593H1.92519C0.855914 15.5593 0 16.4117 0 17.4777V22.5223C0.000497307 23.5878 0.855926 24.4407 1.9257 24.4407H1.92569ZM2.13954 17.6914H5.56175L5.98946 16.1283C6.27444 14.9914 6.77377 13.8546 7.34426 12.7891L8.12857 11.3683L5.70455 8.95282L8.98453 5.6844L11.4086 8.09987L12.8344 7.31833C13.9037 6.74989 15.0445 6.25282 16.1854 5.96831L17.754 5.5421L17.7535 3.83685V2.06067H22.3877L22.3881 3.83685V5.4708L23.9567 5.89701C25.0976 6.18098 26.2385 6.67855 27.3077 7.24703L28.7336 8.02857L31.1576 5.6131L34.4376 8.88152L33.2256 10.2315L32.0847 11.3684L32.869 12.7892C33.4395 13.8547 33.9383 14.9915 34.2238 16.1284L34.6515 17.6915H38.0737V22.3093H34.6515L34.2238 23.8723C33.9388 25.0092 33.4395 26.1461 32.869 27.2115L32.0847 28.6323L34.5087 31.0478L31.2287 34.3162L29.9456 33.1085L28.8047 31.9716L27.3789 32.7532C26.3096 33.3216 25.1688 33.8187 24.0278 34.1032L22.4593 34.5294V37.9395H17.8251V34.5294L16.2566 34.1032C15.1157 33.8192 13.9748 33.3216 12.9055 32.7532L11.4797 31.9716L9.05567 34.3871L5.77568 31.1187L8.1997 28.7032L7.41539 27.2824C6.84494 26.2169 6.34612 25.0801 6.06059 23.9432L5.56176 22.3092H2.13955L2.13954 17.6914Z" fill="white"/>
<path d="M20.1076 28.9168C25.0274 28.9168 29.0199 24.9383 29.0199 20.0359C29.0199 15.1335 25.0274 11.155 20.1076 11.155C15.1879 11.155 11.1953 15.1335 11.1953 20.0359C11.1953 24.9383 15.1879 28.9168 20.1076 28.9168ZM20.1076 13.2154C23.8865 13.2154 26.8809 16.2702 26.8809 19.9647C26.8809 23.6593 23.8153 26.7141 20.1076 26.7141C16.4 26.7141 13.3344 23.6593 13.3344 19.9647C13.3344 16.2702 16.4005 13.2154 20.1076 13.2154Z" fill="white"/>
</svg>
