<svg width="40" height="40" viewBox="0 0 40 40" fill="none" xmlns="http://www.w3.org/2000/svg">
<path d="M37.3341 7.33323C36.776 7.33323 36.2587 7.5065 35.8301 7.80113L32.2547 5.75848C32.5167 5.22724 32.6674 4.63187 32.6674 3.99989C32.6674 1.79402 30.8732 0 28.6673 0C26.4613 0 24.6672 1.79402 24.6672 3.99989C24.6672 5.41199 25.4038 6.65245 26.5118 7.36443L24.5232 10.3476C23.1244 9.69112 21.5917 9.33373 20.0005 9.33373C17.8411 9.33373 15.7811 9.97378 14.0324 11.159L10.5544 8.26041C10.625 7.96242 10.6671 7.653 10.6671 7.33379C10.6671 5.12792 8.87301 3.3339 6.66703 3.3339C4.46105 3.3339 2.66693 5.12792 2.66693 7.33379C2.66693 9.00503 3.69824 10.4383 5.15692 11.0357L2.85944 17.3527C2.79471 17.348 2.73276 17.3335 2.66664 17.3335C1.19589 17.3335 0 18.5293 0 20C0 21.4706 1.19589 22.6665 2.66664 22.6665C4.13738 22.6665 5.33327 21.4706 5.33327 20C5.33327 19.0681 4.85139 18.2494 4.12538 17.7726L6.47087 11.3241C6.53616 11.3275 6.60089 11.3342 6.66674 11.3342C8.05878 11.3342 9.28538 10.6188 10.0022 9.53766L12.961 12.003C12.7916 12.1523 12.6197 12.2977 12.4582 12.4589C12.2796 12.6375 12.1116 12.8216 11.9481 13.0088C11.9361 13.0228 11.9289 13.039 11.918 13.0535C10.2505 14.9867 9.33334 17.4214 9.33334 20.0006C9.33334 22.5798 10.2508 25.0144 11.918 26.9477C11.9286 26.9624 11.9361 26.9784 11.9481 26.9923C12.1113 27.1795 12.2793 27.3642 12.4582 27.5422C14.4721 29.557 17.1516 30.6669 20.0005 30.6669C20.9751 30.6669 21.9272 30.5276 22.8426 30.2762L23.2034 32.0809C21.6534 32.3956 20.4274 33.6096 20.0925 35.1528L13.9844 33.4869C13.9877 33.435 13.9997 33.3861 13.9997 33.3334C13.9997 31.8627 12.8039 30.6669 11.3331 30.6669C9.86236 30.6669 8.66647 31.8627 8.66647 33.3334C8.66647 34.8041 9.86236 35.9999 11.3331 35.9999C12.2784 35.9999 13.1057 35.5019 13.5792 34.758L20.0381 36.5194C20.2942 38.48 21.9714 40 24.0003 40C26.2062 40 28.0004 38.206 28.0004 36.0001C28.0004 33.9835 26.4984 32.3149 24.5555 32.0434L24.116 29.8454C25.3814 29.3167 26.5441 28.5413 27.5428 27.5428C27.7213 27.3642 27.8893 27.1801 28.0528 26.9929C28.0648 26.9789 28.0721 26.9627 28.0829 26.9482C29.7504 25.0144 30.6676 22.5803 30.6676 20.0003C30.6676 17.4212 29.7501 14.9866 28.0829 13.0525C28.0723 13.0377 28.0648 13.0218 28.0528 13.0078C27.8896 12.8206 27.7216 12.6359 27.5428 12.4579C26.978 11.8926 26.3561 11.4072 25.6973 10.9892L27.762 7.89332C28.0533 7.9614 28.3555 8.00074 28.6666 8.00074C29.7587 8.00074 30.7493 7.56018 31.4719 6.84735L34.9474 8.83336C34.7733 9.18742 34.6667 9.57998 34.6667 10.0008C34.6667 11.4714 35.8626 12.6672 37.3334 12.6672C38.8041 12.6672 40 11.4714 40 10.0008C40 8.53065 38.8043 7.33323 37.3341 7.33323ZM24.2902 11.7123C24.4068 11.7729 24.5229 11.8362 24.6368 11.9023C24.9454 12.0803 25.2434 12.2756 25.5302 12.4877C25.6728 12.5937 25.8129 12.7036 25.9496 12.8178C25.9884 12.8498 26.2657 13.1417 26.3042 13.1311C25.7534 13.2851 25.0974 13.4458 24.3541 13.5864C23.8267 12.7251 23.2039 11.9104 22.4654 11.1719C22.3834 11.0907 22.3075 11.0206 22.228 10.9439C22.3694 10.9785 22.5126 11.0086 22.6521 11.0499C23.2174 11.2165 23.7667 11.4397 24.2902 11.7123ZM29.3015 19.3328H26.1507C26.0648 17.757 25.6781 16.2297 25.0126 14.8104C25.9392 14.6184 26.7205 14.4064 27.3206 14.2183C28.4847 15.6868 29.1695 17.4543 29.3015 19.3328ZM27.3215 25.7805C26.7216 25.5924 25.9395 25.3804 25.0134 25.1884C25.6789 23.7691 26.0654 22.2418 26.1516 20.666H29.3023C29.1695 22.5446 28.4847 24.3121 27.3215 25.7805ZM25.7821 27.3173C24.8546 28.0519 23.7868 28.6153 22.652 28.9498C22.5128 28.991 22.3694 29.0212 22.2279 29.0558C22.3071 28.9791 22.3839 28.9099 22.4654 28.8278C23.2039 28.0893 23.8267 27.2746 24.354 26.4133C25.0973 26.5539 25.7534 26.7146 26.3042 26.8686C26.235 26.9319 26.1669 26.9967 26.0963 27.0572C25.9928 27.1459 25.8881 27.2325 25.7821 27.3173ZM16.989 28.8345C16.4285 28.6431 15.8869 28.3959 15.3744 28.1005C15.063 27.9211 14.7616 27.7238 14.4723 27.5104C14.383 27.4443 13.773 26.8472 13.6977 26.8678C14.2485 26.7138 14.9045 26.5531 15.6478 26.4125C16.1751 27.2738 16.798 28.0885 17.5365 28.8271C17.6185 28.9082 17.6944 28.9783 17.7739 29.055C17.6325 29.0204 17.4893 28.9903 17.3498 28.949C17.2284 28.9138 17.1085 28.8753 16.989 28.8345ZM10.6995 20.6662H13.8502C13.9362 22.242 14.3229 23.7693 14.9884 25.1886C14.0617 25.3801 13.2805 25.5926 12.6804 25.7807C11.5157 24.3123 10.8315 22.5447 10.6995 20.6662ZM12.6795 14.2185C13.2794 14.4066 14.0615 14.6186 14.9876 14.8106C14.3221 16.2299 13.9356 17.7572 13.8494 19.333H10.6987C10.8315 17.4544 11.5158 15.6869 12.6795 14.2185ZM13.907 12.9437C15.0178 11.9831 16.3457 11.2925 17.7731 10.9438C17.6939 11.0205 17.6171 11.0905 17.5357 11.1717C16.7977 11.9103 16.1743 12.725 15.647 13.5863C14.9037 13.4457 14.2477 13.285 13.6969 13.131C13.7663 13.0671 13.8364 13.0051 13.907 12.9437ZM18.4791 27.8847C17.9512 27.3568 17.483 26.7887 17.075 26.1895C17.779 26.0994 18.5357 26.0374 19.3337 26.0134V28.6774C19.0606 28.4467 18.779 28.1855 18.4791 27.8847ZM18.4791 12.1145C18.7799 11.8137 19.0603 11.5525 19.3337 11.3218V13.9858C18.5357 13.9618 17.7785 13.8998 17.075 13.8097C17.4824 13.2104 17.9512 12.6423 18.4791 12.1145ZM19.3337 15.315V19.333H15.183C15.2751 17.837 15.671 16.3898 16.3477 15.0564C17.2545 15.1931 18.2631 15.2843 19.3337 15.315ZM19.3337 20.6661V24.6842C18.2631 24.7149 17.2545 24.8061 16.3476 24.9428C15.6709 23.6094 15.275 22.1622 15.1829 20.6661L19.3337 20.6661ZM20.6672 28.6795V26.0141C21.4652 26.0381 22.2224 26.1001 22.9259 26.1902C22.518 26.7895 22.0497 27.3576 21.5219 27.8854C21.2205 28.1862 20.9393 28.4482 20.6672 28.6795ZM20.6672 24.6843V20.6663H24.8179C24.7259 22.1623 24.3299 23.6096 23.6533 24.9429C22.7459 24.8062 21.7379 24.715 20.6672 24.6843ZM20.6672 19.3332V15.3151C21.7378 15.2845 22.7465 15.1932 23.6533 15.0565C24.33 16.3899 24.7259 17.8366 24.818 19.3332L20.6672 19.3332ZM20.6672 13.986V11.322C20.9406 11.5533 21.2219 11.8139 21.5219 12.1147C22.0498 12.6426 22.5179 13.2106 22.9259 13.8099C22.2219 13.9 21.4652 13.962 20.6672 13.986Z" fill="white"/>
</svg>
